<?xml version="1.0" encoding="utf-8"?>
<!-- Generator: Adobe Illustrator 18.1.1, SVG Export Plug-In . SVG Version: 6.00 Build 0)  -->
<svg version="1.1" id="Capa_1" xmlns="http://www.w3.org/2000/svg" xmlns:xlink="http://www.w3.org/1999/xlink" x="0px" y="0px"
	 viewBox="0 0 841.89 595.28" enable-background="new 0 0 841.89 595.28" xml:space="preserve">
<g>
	<g>
		<g>
			<polyline fill-rule="evenodd" clip-rule="evenodd" fill="#044262" points="187.529,253.371 208.591,252.871 248.121,255.285 
				343.845,254.46 381.239,259.056 385.588,249.059 379.392,224.091 208.146,224.091 			"/>
			<path fill="#0582BB" d="M260.196,236.523c0,0-1.218-27.752-78.521-21.483l5.475,25.958c0,0-6.694,8.952-1.825,12.533l23.267-0.66
				c-0.285-1.362-0.438-2.775-0.438-4.225c0-11.341,9.194-20.534,20.536-20.534c11.341,0,20.535,9.193,20.535,20.534
				c0,2.326-0.392,4.556-1.104,6.639l95.724-0.825c-0.545-1.844-0.842-3.792-0.842-5.813c0-11.341,9.193-20.534,20.537-20.534
				c11.34,0,20.533,9.193,20.533,20.534c0,3.8-1.035,7.356-2.834,10.409l5.566,0.742l-1.218-10.739l-0.608-8.954l6.088-18.8
				c0,0,9.13-4.476,9.13-14.323C400.197,206.981,311.326,203.402,260.196,236.523z"/>
			<ellipse fill="#F9B233" stroke="#055A81" cx="182.594" cy="221.554" rx="3.461" ry="1.973"/>
			<ellipse fill="#F9B233" stroke="#055A81" cx="183.608" cy="224.906" rx="3.461" ry="1.972"/>
			<ellipse fill="#F9B233" stroke="#055A81" cx="184.62" cy="228.074" rx="3.462" ry="1.97"/>
			<path fill="#FFFFFF" d="M250.112,253.371h88.769c0,0-7.518-7.369,0.358-11.054c0,0-9.667-1.055-6.803,6.843L250.112,253.371z"/>
			<path fill="#0582BB" d="M333.239,211.456l-6.694-24.166l8.781,0.769c0,0-61.738-41.054-122.002,29.665l28.609,7.162
				c0,0-7.913-39.388,79.133-37.596L333.239,211.456z"/>
			<path fill="#FFFFFF" d="M392.09,210.166c0,0-71.399-4.363-131.129,28.503c0,0,60.521-28.503,125.392-26.761L392.09,210.166z"/>
			<path fill="#FFFFFF" d="M259.183,238.087c0,0-0.992-18.907-45.096-21.812C214.087,216.274,249.689,220.055,259.183,238.087z"/>
			<path fill="#055A81" d="M326.806,248.27c0,0-0.742-0.896,0.246-5.369l-79.941,5.817L326.806,248.27z"/>
			<path fill="#FFFFFF" stroke="#055A81" stroke-width="0.9747" d="M231.585,208.327c0,3.212,1.773,5.814,3.956,5.814
				c2.186,0,3.961-2.603,3.961-5.814c0-3.216-1.775-5.822-3.961-5.822C233.358,202.505,231.585,205.111,231.585,208.327z"/>
			<polyline fill="#0582BB" points="325.598,212.931 318.528,206.987 320.347,200.749 312.468,214.117 317.517,209.364 
				324.185,213.522 			"/>
			<path fill="#055A81" d="M286.728,217.589l-1.732-13.572c1.214-2.081,4.848-0.594,4.848-0.594l3.584,13.47l15.203-1.587h0.402
				c-25.047,4.454-48.48,19.607-48.48,19.607c-2.22-10.994-11.716-13.369-11.716-13.369L286.728,217.589z"/>
			<path fill="#0582BB" d="M210.86,215.306c0,0-6.263-18.718-13.737-23.471c0,0,9.495,10.991,12.122,23.471H210.86z"/>
			<path fill="#0582BB" d="M196.315,191.835c0,0.986,0.542,1.78,1.213,1.78c0.668,0,1.211-0.794,1.211-1.78
				c0-0.983-0.543-1.781-1.211-1.781C196.857,190.054,196.315,190.852,196.315,191.835z"/>
			<path fill="#055A81" d="M389.058,221.174c0,0-10.822-2.395-45.259,2.396c0,0,41.768-2.222,41.188,0.345
				c-0.584,2.566-16.389,2.311-16.389,2.311s16.038,0.597,14.758,3.336c-1.278,2.737-6.708,2.102-6.708,2.102l7.522,3.886
				c0,0,3.828-8.935,4.888-14.03"/>
			<path fill="#055A81" d="M185.857,218.43c0,0,25.616-5.566,51.814,9.415c0,0-32.312-1.926-48.903,7.491
				c0,0,8.587-9.415,31.437-10.272c0,0-15.718-4.067-32.164,1.284c0,0,1.892-4.496,25.033-4.923
				C213.073,221.425,196.918,216.931,185.857,218.43z"/>
			<path fill="#055A81" d="M328.587,185.787c0,0-69.152-5.262-82.264,21.041C246.323,206.828,251.429,177.523,328.587,185.787z"/>
		</g>
		<path fill="#F9B233" stroke="#055A81" d="M396.709,213.753c2.42-3.577,3.166-5.715,1.544-5.751
			c-1.886-0.04-5.705,2.905-8.123,6.48c-2.42,3.577-2.211,6.88-0.637,6.48C391.055,220.554,394.294,217.331,396.709,213.753z"/>
	</g>
	<g>
		<g>
			<path fill-rule="evenodd" clip-rule="evenodd" fill="#1E1E1C" d="M346.533,247.818c0-10.648,8.577-19.28,19.154-19.28
				c10.579,0,19.157,8.632,19.157,19.28c0,10.651-8.578,19.284-19.157,19.284C355.11,267.103,346.533,258.47,346.533,247.818z"/>
			<path fill-rule="evenodd" clip-rule="evenodd" fill="#CECEB8" d="M352.45,247.818c0-7.36,5.929-13.326,13.237-13.326
				c7.315,0,13.239,5.966,13.239,13.326c0,7.361-5.924,13.327-13.239,13.327C358.379,261.146,352.45,255.18,352.45,247.818z"/>
			<g>
				<path fill-rule="evenodd" clip-rule="evenodd" fill="#BE1823" d="M366.648,238.073c-0.527-3.868-1.39-3.868-1.917,0
					c-0.527,3.868-4.066,6.469-7.864,5.781c-3.799-0.688-4.064,0.141-0.592,1.842c3.473,1.701,4.824,5.91,3.004,9.354
					c-1.82,3.442-1.123,3.955,1.551,1.14c2.673-2.815,7.047-2.815,9.721,0c2.673,2.815,3.369,2.303,1.548-1.14
					c-1.821-3.443-0.47-7.652,3.004-9.354c3.474-1.701,3.208-2.53-0.591-1.842C370.712,244.542,367.174,241.941,366.648,238.073z"/>
			</g>
			<path fill-rule="evenodd" clip-rule="evenodd" fill="#B2B390" d="M361.184,247.818c0-2.502,2.015-4.535,4.504-4.535
				c2.489,0,4.505,2.033,4.505,4.535c0,2.503-2.016,4.534-4.505,4.534C363.198,252.353,361.184,250.321,361.184,247.818z"/>
		</g>
	</g>
	<g>
		<g>
			<path fill-rule="evenodd" clip-rule="evenodd" fill="#1E1E1C" d="M212.429,248.716c0-10.648,8.577-19.28,19.154-19.28
				c10.579,0,19.156,8.632,19.156,19.28c0,10.651-8.577,19.284-19.156,19.284C221.006,268,212.429,259.367,212.429,248.716z"/>
			<path fill-rule="evenodd" clip-rule="evenodd" fill="#CECEB8" d="M218.345,248.716c0-7.359,5.929-13.326,13.238-13.326
				c7.315,0,13.239,5.967,13.239,13.326c0,7.361-5.924,13.327-13.239,13.327C224.274,262.043,218.345,256.077,218.345,248.716z"/>
			<g>
				<path fill-rule="evenodd" clip-rule="evenodd" fill="#BE1823" d="M232.542,238.971c-0.526-3.868-1.389-3.868-1.916,0
					c-0.527,3.868-4.066,6.469-7.865,5.78c-3.799-0.688-4.065,0.142-0.592,1.844c3.473,1.701,4.825,5.91,3.004,9.353
					c-1.82,3.442-1.122,3.955,1.551,1.14c2.674-2.815,7.048-2.815,9.721,0c2.673,2.815,3.369,2.303,1.549-1.14
					c-1.821-3.442-0.47-7.651,3.004-9.353c3.473-1.702,3.207-2.531-0.592-1.844C236.608,245.439,233.069,242.839,232.542,238.971z"
					/>
			</g>
			<ellipse fill-rule="evenodd" clip-rule="evenodd" fill="#B2B390" cx="231.583" cy="248.716" rx="4.504" ry="4.534"/>
		</g>
	</g>
</g>
</svg>
